<?xml version="1.0" encoding="UTF-8" standalone="no"?>
<svg
   xmlns:dc="http://purl.org/dc/elements/1.1/"
   xmlns:cc="http://creativecommons.org/ns#"
   xmlns:rdf="http://www.w3.org/1999/02/22-rdf-syntax-ns#"
   xmlns:svg="http://www.w3.org/2000/svg"
   xmlns="http://www.w3.org/2000/svg"
   xmlns:sodipodi="http://sodipodi.sourceforge.net/DTD/sodipodi-0.dtd"
   xmlns:inkscape="http://www.inkscape.org/namespaces/inkscape"
   version="1.1"
   width="16"
   height="16"
   viewBox="0 0 16 16"
   id="svg6"
   sodipodi:docname="Cluster.svg"
   inkscape:version="0.92.4 (33fec40, 2019-01-16)">
  <defs
     id="defs10" />
  <sodipodi:namedview
     pagecolor="#ffffff"
     bordercolor="#666666"
     borderopacity="1"
     objecttolerance="10"
     gridtolerance="10"
     guidetolerance="10"
     inkscape:pageopacity="0"
     inkscape:pageshadow="2"
     inkscape:window-width="640"
     inkscape:window-height="480"
     id="namedview8"
     showgrid="false"
     inkscape:zoom="14.75"
     inkscape:cx="8"
     inkscape:cy="8"
     inkscape:window-x="2142"
     inkscape:window-y="548"
     inkscape:window-maximized="0"
     inkscape:current-layer="svg6" />
  <path
     d="m 12.458152,11.187016 a 1.4356705,1.4863983 0 0 0 -0.726119,0.227472 l -1.59343,-1.6072188 a 2.4773059,2.5648389 0 0 0 0.533065,-1.4863986 l 1.130959,-0.1170922 a 1.0733311,1.1112562 0 1 0 -0.06412,-0.5727815 l -1.146088,0.095464 A 2.5298919,2.619283 0 0 0 9.1675633,5.8462747 L 9.3894331,5.2205404 H 9.5767257 A 1.440713,1.4916191 0 1 0 8.8491657,5.0229009 L 8.6546695,5.660568 A 2.38438,2.4686295 0 0 0 8.1115206,5.59792 c -0.5978958,0 -1.1453667,0.2207597 -1.5710974,0.5884438 L 4.383676,3.9459521 A 1.0805347,1.1187143 0 1 0 3.4536957,4.4754768 C 3.6561159,4.474731 3.8455697,4.4165578 4.0062092,4.3158736 l 2.1560269,2.2404117 a 2.4823485,2.5700596 0 0 0 -0.5474709,1.616915 v 0.1513993 l -0.4754353,0.082039 a 1.440713,1.4916191 0 1 0 0.1159774,0.5862063 l -7.204e-4,-0.044001 0.4538246,-0.072339 a 2.5370955,2.626741 0 0 0 1.0560426,1.4856517 l -0.4005182,0.886022 a 1.4025341,1.452091 0 0 0 -0.3882721,-0.05967 h -0.012246 a 1.440713,1.4916191 0 1 0 0.8867588,0.315477 l 0.4077218,-0.859918 c 0.2622098,0.108889 0.5669204,0.172282 0.8853181,0.172282 0.6101419,0 1.1676978,-0.231946 1.59631,-0.614548 l 1.5674965,1.584101 a 1.440713,1.4916191 0 1 0 1.15257,-0.596649 z m -6.4832086,2.237429 a 0.72035648,0.74580951 0 1 1 0,-1.491619 0.72035648,0.74580951 0 0 1 0,1.491619 z m 2.1610695,-3.356143 a 1.8008912,1.8645238 0 1 1 0,-3.7290473 1.8008912,1.8645239 0 0 1 0,3.7290473 z"
     id="path2"
     inkscape:connector-curvature="0"
     style="fill:#444444;stroke-width:0.73297256" />
  <metadata
     id="metadata4">
    <rdf:RDF>
      <rdf:Description
         about="https://iconscout.com/legal#licenses"
         dc:title="cluster"
         dc:description="cluster"
         dc:publisher="Iconscout"
         dc:date="2017-09-19"
         dc:format="image/svg+xml"
         dc:language="en">
        <dc:creator>
          <rdf:Bag>
            <rdf:li>Vaadin Icons</rdf:li>
          </rdf:Bag>
        </dc:creator>
      </rdf:Description>
      <cc:Work
         rdf:about="">
        <dc:format>image/svg+xml</dc:format>
        <dc:type
           rdf:resource="http://purl.org/dc/dcmitype/StillImage" />
      </cc:Work>
    </rdf:RDF>
  </metadata>
</svg>
